<svg width="20" height="20" viewBox="0 0 20 20" fill="none" xmlns="http://www.w3.org/2000/svg">
<rect width="20" height="20" fill="#E5E5E5"/>
<g id="landing3" clip-path="url(#clip0_49_254)">
<rect width="1440" height="14406" transform="translate(-1172 -60)" fill="#0E1014"/>
<g id="purple light" opacity="0.5" filter="url(#filter0_f_49_254)">
<circle cx="-440.5" cy="-84.5" r="129.5" fill="#833AB4"/>
</g>
<g id="header">
<g id="telegram">
<path id="Vector" d="M17.2208 3.09753L2.44583 8.79503C1.4375 9.20003 1.44333 9.76253 2.26083 10.0134L6.05416 11.1967L14.8308 5.6592C15.2458 5.4067 15.625 5.54253 15.3133 5.8192L8.2025 12.2367H8.20083L8.2025 12.2375L7.94083 16.1475C8.32416 16.1475 8.49333 15.9717 8.70833 15.7642L10.5508 13.9725L14.3833 16.8034C15.09 17.1925 15.5975 16.9925 15.7733 16.1492L18.2892 4.29253C18.5467 3.26003 17.895 2.79253 17.2208 3.09753Z" fill="#E4E5EA"/>
</g>
</g>
</g>
<defs>
<filter id="filter0_f_49_254" x="-962" y="-606" width="1043" height="1043" filterUnits="userSpaceOnUse" color-interpolation-filters="sRGB">
<feFlood flood-opacity="0" result="BackgroundImageFix"/>
<feBlend mode="normal" in="SourceGraphic" in2="BackgroundImageFix" result="shape"/>
<feGaussianBlur stdDeviation="196" result="effect1_foregroundBlur_49_254"/>
</filter>
<clipPath id="clip0_49_254">
<rect width="1440" height="14406" fill="white" transform="translate(-1172 -60)"/>
</clipPath>
</defs>
</svg>
